# xmcd CD database file
# Copyright (C) 1995-1998 Ti Kan
#
# Track frame offsets:
#	182
#	17562
#	34405
#	49355
#	66057
#	82052
#	90397
#	104337
#	119852
#	142865
#
# Disc length: 2123 seconds
#
# Revision: 3
# Processed by: cddbd v1.4PL0 Copyright (c) Steve Scherf et al.
# Submitted via: CDex 1.30Release
#
DISCID=8808490a
DTITLE=Cat Stevens - Wild World
DYEAR=1900
DGENRE=Blues
TTITLE0=Where do the Children play
TTITLE1=Hard headed woman
TTITLE2=Hard Headed Woman
TTITLE3=Sad Lisa
TTITLE4=Miles Form Nowhere
TTITLE5=But I Might Die Tonight
TTITLE6=Longer Boats
TTITLE7=Into White
TTITLE8=On The Road To Find Out
TTITLE9=Father and Son
EXTD=ID3G:   0
EXTT0=
EXTT1=
EXTT2=
EXTT3=
EXTT4=
EXTT5=
EXTT6=
EXTT7=
EXTT8=
EXTT9=
PLAYORDER=
